<?xml version="1.0" encoding="UTF-8"?>
<svg version="1.1" xmlns="http://www.w3.org/2000/svg" width="589" height="646">
<path d="M0 0 C-1.96875 2.1875 -1.96875 2.1875 -3.9375 4.375 C-4.76121094 5.29152344 -5.58492188 6.20804687 -6.43359375 7.15234375 C-8.04553694 8.94093824 -9.66205501 10.72543121 -11.28515625 12.50390625 C-15.95168488 17.6313266 -20.3898757 22.89165191 -24.75 28.28125 C-26.93501569 30.92147729 -29.19171391 33.4672972 -31.5 36 C-35.31804282 40.19326427 -38.90859311 44.52783313 -42.47265625 48.9375 C-45.99729131 53.20846428 -49.64242824 57.37153944 -53.30761719 61.5222168 C-57.13245454 65.88695466 -60.49282402 70.32376536 -64 75 C41.93 75 147.86 75 257 75 C257 75.66 257 76.32 257 77 C255.52931586 78.30863371 253.99398682 79.5446856 252.4375 80.75 C247.57402609 84.63076426 243.01345905 88.71895683 238.5 93 C233.45653892 97.77249742 228.30598208 102.26189525 222.875 106.59375 C218.60709292 110.16580266 214.60498436 114.00732749 210.56445312 117.83227539 C205.98530065 122.14368571 201.25921392 126.13345123 196.34375 130.05859375 C194.26054665 131.78418053 192.37706783 133.55652647 190.5 135.5 C187.82958156 138.26489079 185.00404008 140.66368565 182 143.0625 C177.34164353 146.8083291 172.96672549 150.76782749 168.625 154.875 C163.47527254 159.74412916 158.22789398 164.4225028 152.77832031 168.95214844 C148.86096003 172.22503202 145.10108027 175.63664927 141.375 179.125 C137.54185493 182.71213131 133.6634252 186.15315727 129.5625 189.4375 C124.53917209 193.46639909 119.87095464 197.79608272 115.18725586 202.20727539 C111.76824062 205.40977321 108.29340474 208.45569893 104.625 211.375 C98.87020543 215.95991107 93.59055844 221.01341235 88.30517578 226.12451172 C87.64630371 226.75502441 86.98743164 227.38553711 86.30859375 228.03515625 C85.71876709 228.6062915 85.12894043 229.17742676 84.52124023 229.76586914 C83 231 83 231 81 231 C81.6191639 228.415141 82.24507682 225.83223828 82.875 223.25 C83.13603516 222.15558594 83.13603516 222.15558594 83.40234375 221.0390625 C83.66337891 219.97558594 83.66337891 219.97558594 83.9296875 218.890625 C84.08679199 218.24125977 84.24389648 217.59189453 84.40576172 216.92285156 C85 215 85 215 86.00708008 213.01855469 C87.0377874 210.92318018 87.51069226 209.09858842 87.95703125 206.8125 C88.94267162 202.11514298 90.26707304 197.58176324 91.6875 193 C94.45908252 183.92912928 97.04001916 174.81214202 99.55151367 165.66601562 C101.19750874 159.71137224 102.98398581 153.83956926 105 148 C105.33 147.01 105.66 146.02 106 145 C11.95 145.495 11.95 145.495 -84 146 C-75.56832743 152.94374123 -75.56832743 152.94374123 -66.9375 159.5625 C-63.31863228 162.2500074 -59.75142171 164.97382646 -56.25 167.8125 C-51.77354559 171.42136797 -47.21465935 174.91210925 -42.625 178.375 C-41.93438477 178.89940674 -41.24376953 179.42381348 -40.53222656 179.96411133 C-39.87448242 180.45806396 -39.21673828 180.9520166 -38.5390625 181.4609375 C-37.66048584 182.12295166 -37.66048584 182.12295166 -36.76416016 182.79833984 C-35.00207762 184.06016363 -35.00207762 184.06016363 -32.9284668 185.01196289 C-30.08967368 186.46639962 -28.2265498 188.73339233 -26 191 C-24.13053033 192.51234956 -22.23226092 193.98952346 -20.3125 195.4375 C-19.16356997 196.30924708 -18.01516297 197.18168377 -16.8671875 198.0546875 C-16.2494043 198.52358398 -15.63162109 198.99248047 -14.99511719 199.47558594 C-11.28683065 202.30898549 -7.61574724 205.1902908 -3.9375 208.0625 C2.04595087 212.72634726 8.06523815 217.33020846 14.1484375 221.86328125 C18.92888919 225.44534573 23.65235817 229.10131993 28.38085938 232.75146484 C30.97965631 234.75542256 33.58427682 236.75179728 36.1875 238.75 C42.25757312 243.41447036 48.29795514 248.11685133 54.33764648 252.82055664 C58.79671601 256.29166313 63.26545999 259.74937588 67.75 263.1875 C73.04219823 267.24597559 78.28837674 271.36006031 83.50878906 275.51049805 C86.60243506 277.98593757 86.60243506 277.98593757 90 280 C88.75298819 276.8529742 87.50183003 273.70761197 86.25 270.5625 C85.90195312 269.68400391 85.55390625 268.80550781 85.1953125 267.90039062 C83.16316443 262.80120426 81.0379503 257.77169502 78.72558594 252.79272461 C78 251 78 251 78 249 C81.40205288 249.62064478 83.48837589 250.88559397 86.25 252.9375 C90.64916167 256.10101479 95.14588683 259.02425816 99.75 261.875 C101.13287319 262.73297511 102.51568543 263.59104845 103.8984375 264.44921875 C104.58260742 264.87380371 105.26677734 265.29838867 105.97167969 265.73583984 C109.120042 267.69807143 112.2516271 269.68576846 115.375 271.6875 C115.95040527 272.05625244 116.52581055 272.42500488 117.11865234 272.80493164 C120.60329316 275.05452896 124.00373571 277.39711247 127.375 279.8125 C131.41909201 282.69157213 135.49757199 284.91554259 140 287 C140 287.66 140 288.32 140 289 C140.54398437 289.26425781 141.08796875 289.52851563 141.6484375 289.80078125 C148.23481843 293.15961671 154.6259968 296.92780152 160.625 301.25 C166.10608403 305.1931616 171.87340526 308.63616017 177.66845703 312.09277344 C181.68677137 314.50741268 185.37715502 317.00721502 189 320 C190.66229639 320.94522736 192.32568024 321.88873738 194 322.8125 C196.32587548 324.19348857 198.49024659 325.73498473 200.6875 327.3125 C204.26042006 329.85228655 207.87918263 332.14216859 211.6875 334.3125 C216.89122699 337.29455956 221.86856778 340.51282316 226.83691406 343.86401367 C232.49727777 347.67964091 238.21053584 351.41018501 243.9375 355.125 C245.28038086 355.99632568 245.28038086 355.99632568 246.65039062 356.88525391 C248.76645932 358.25755997 250.88296584 359.62918399 253 361 C248.42365647 362.47262031 245.03830006 360.89573194 240.6875 359.3125 C233.68749571 356.86381042 226.72369446 354.76230136 219.52734375 352.95703125 C216.83881459 352.22758535 214.24941179 351.42856687 211.6171875 350.53125 C207.18791568 349.02925488 202.72034649 347.83127515 198.1875 346.6875 C188.03728772 344.07662792 178.01873854 341.07213163 168 338 C168 337.34 168 336.68 168 336 C166.2675 335.9071875 166.2675 335.9071875 164.5 335.8125 C157.08337211 335.02678982 150.04247782 332.34173189 143 330 C142.67 330.33 142.34 330.66 142 331 C142.67204468 331.66418945 142.67204468 331.66418945 143.35766602 332.34179688 C145.42870096 334.39176683 147.49560697 336.44585433 149.5625 338.5 C150.26697266 339.19609375 150.97144531 339.8921875 151.69726562 340.609375 C155.72046525 344.61403453 159.53450655 348.71731772 163.23803711 353.01757812 C166.33419695 356.50113333 169.674022 359.73773805 173 363 C177.61825953 367.52978713 182.0319728 372.12959484 186.25390625 377.03125 C189.18628229 380.33755319 192.34581889 383.40720629 195.5 386.5 C199.96964094 390.92173249 204.3375962 395.34200952 208.375 400.16796875 C211.10996996 403.2513844 214.1588749 406.02356707 217.1796875 408.82421875 C219.21738004 411.25982979 219.66121395 412.87988973 220 416 C219.113125 416.433125 218.22625 416.86625 217.3125 417.3125 C214.08048236 418.87794076 214.08048236 418.87794076 211.5625 420.625 C208.39582256 422.32419277 205.55152669 422.65181111 202 423 C201.67 423.99 201.34 424.98 201 426 C198.55078125 426.921875 198.55078125 426.921875 195.3125 427.75 C190.10950047 429.22922819 185.51503373 431.06665401 180.75 433.5625 C176.20857584 435.92645997 171.86368522 437.91016607 166.96484375 439.37890625 C164.94088026 440.01868795 163.0588688 440.81504776 161.125 441.6875 C158 443 158 443 155 443 C155 443.66 155 444.32 155 445 C150.9811485 446.81242323 147.38889325 448.33501617 143 449 C143 449.66 143 450.32 143 451 C142.35933594 451.24234375 141.71867187 451.4846875 141.05859375 451.734375 C136.88482412 453.35163298 132.85823226 454.96605702 129 457.25 C126 459 126 459 124 459 C123.67 459.99 123.34 460.98 123 462 C121.13671875 462.921875 121.13671875 462.921875 118.6875 463.75 C113.21295427 465.77234301 108.43350529 468.56398387 103.46875 471.609375 C101 473 101 473 99 473 C99 473.66 99 474.32 99 475 C98.37351562 475.26554687 97.74703125 475.53109375 97.1015625 475.8046875 C95.87566406 476.33449219 95.87566406 476.33449219 94.625 476.875 C93.81289063 477.22304688 93.00078125 477.57109375 92.1640625 477.9296875 C89.86197701 478.92446067 89.86197701 478.92446067 88 481 C86.31843508 481.73689026 84.63480205 482.46969671 82.93759155 483.1697998 C79.78024097 484.52263037 76.76582898 486.14878397 73.73828125 487.765625 C72.73041817 488.30035431 72.73041817 488.30035431 71.70219421 488.84588623 C70.28714635 489.59755257 68.87283408 490.3506052 67.45922852 491.10498047 C65.33750463 492.23666306 63.21290628 493.36279448 61.08789062 494.48828125 C53.83380966 498.34204981 46.66004345 502.28518166 39.59472656 506.47729492 C34.17425277 509.65827865 28.61658082 512.59726082 23.078125 515.56640625 C17.13091726 518.75966336 17.13091726 518.75966336 11.4375 522.375 C9 524 9 524 7 524 C8.41303213 519.67550058 10.50032388 517.08712187 13.625 513.8125 C16.92233462 510.2833585 20.08269588 506.73869882 23.0625 502.9375 C25.74128645 499.52715741 28.51574996 496.26732617 31.4375 493.0625 C35.30438963 488.81947947 38.94634437 484.43690522 42.55859375 479.9765625 C45.28530664 476.65215414 48.07086496 473.3840779 50.875 470.125 C51.37596191 469.54234375 51.87692383 468.9596875 52.39306641 468.359375 C53.41222324 467.1741116 54.43142921 465.98889045 55.45068359 464.80371094 C58.03733229 461.7923399 60.61557131 458.7739492 63.1875 455.75 C63.65720215 455.20102051 64.1269043 454.65204102 64.61083984 454.08642578 C67.06130412 451.21873382 67.06130412 451.21873382 69 448 C-41.22 448 -151.44 448 -265 448 C-265 446 -265 446 -263.7421875 444.73046875 C-263.12601562 444.22128906 -262.50984375 443.71210938 -261.875 443.1875 C-257.80707561 439.73483108 -253.89528839 436.14409641 -250 432.5 C-245.75925956 428.54234637 -241.49168215 424.63919416 -237.09765625 420.8515625 C-234.30886959 418.38995193 -231.59644964 415.84788479 -228.875 413.3125 C-224.24465809 409.00193684 -219.51642471 404.83651329 -214.6875 400.75 C-210.17981805 396.93307062 -205.89225857 393.02172402 -201.7734375 388.78125 C-199.3794389 386.37670515 -196.82828281 384.18527677 -194.2578125 381.97265625 C-191.5055342 379.56798403 -188.81377089 377.1000459 -186.125 374.625 C-179.5225209 368.55300311 -172.89848269 362.50650143 -166.125 356.625 C-162.15669451 353.17080696 -158.28987441 349.60869442 -154.42016602 346.04516602 C-151.66561908 343.512893 -148.89274925 341.00979797 -146.0625 338.5625 C-142.47041409 335.45035876 -138.98448008 332.23127914 -135.5 329 C-131.41356278 325.21050514 -127.29676342 321.47459509 -123.078125 317.83203125 C-120.93169372 315.93978262 -118.83080446 314.00211817 -116.73242188 312.05688477 C-112.40789907 308.04877379 -108.05184448 304.17829174 -103.4375 300.5 C-98.29012193 296.37760855 -93.76413933 291.84800225 -89.21484375 287.08984375 C-87 285 -87 285 -85 285 C-85.60791069 289.93210562 -86.59932124 294.50362022 -87.99609375 299.2890625 C-88.18969986 299.95537689 -88.38330597 300.62169128 -88.58277893 301.30819702 C-88.9898486 302.70547628 -89.39921603 304.10208803 -89.81079102 305.49804688 C-90.4374132 307.62470541 -91.05617996 309.75353236 -91.67382812 311.8828125 C-94.71075035 322.27980058 -94.71075035 322.27980058 -96.07446289 325.67529297 C-96.94957951 327.87335692 -97.48418252 329.90251357 -97.9375 332.21875 C-99.144798 337.91568745 -100.96849806 343.36974907 -102.7890625 348.89453125 C-104.01942436 352.69125395 -105.13412142 356.43256482 -105.9375 360.34375 C-107.22846103 366.00119688 -109.16497178 371.49491535 -111 377 C-42.36 377 26.28 377 97 377 C93.40272578 373.40272578 90.19889807 370.5072612 86.1875 367.5 C81.11974334 363.66559219 76.16257474 359.71851634 71.25 355.6875 C64.93799314 350.51728682 58.50821898 345.52621867 52.00708008 340.59667969 C48.08535629 337.61636866 44.22703112 334.58598768 40.4375 331.4375 C36.06280813 327.80856991 31.56010527 324.38971891 27 321 C21.46948234 316.8877457 16.06722013 312.67095616 10.76171875 308.26953125 C7.60509419 305.67547344 4.40353926 303.14472412 1.1875 300.625 C0.6004126 300.16488525 0.0133252 299.70477051 -0.59155273 299.23071289 C-2.39369109 297.81960687 -4.19668372 296.40960032 -6 295 C-8.39692646 293.12639172 -10.7929825 291.25168624 -13.1875 289.375 C-13.77104248 288.91770508 -14.35458496 288.46041016 -14.95581055 287.98925781 C-18.55098757 285.16328381 -22.09978314 282.28823517 -25.625 279.375 C-31.27526135 274.72331208 -37.11983195 270.35507592 -43 266 C-44.58421166 264.81367201 -46.16767189 263.62633911 -47.75 262.4375 C-48.83327934 261.62492801 -49.91660262 260.81241459 -51 260 C-50.04287109 261.64548828 -50.04287109 261.64548828 -49.06640625 263.32421875 C-48.23140438 264.77843548 -47.39678923 266.23287431 -46.5625 267.6875 C-46.14162109 268.40873047 -45.72074219 269.12996094 -45.28710938 269.87304688 C-43.18393206 273.55781352 -41.46609532 276.70344855 -41 281 C-46.01660779 279.09679209 -50.8382779 276.78757576 -55.6875 274.5 C-56.55439453 274.09652344 -57.42128906 273.69304687 -58.31445312 273.27734375 C-59.14267578 272.88675781 -59.97089844 272.49617188 -60.82421875 272.09375 C-61.57791748 271.73990234 -62.33161621 271.38605469 -63.1081543 271.02148438 C-65 270 -65 270 -67 268 C-69.06280107 267.13670066 -71.15036272 266.33188763 -73.25 265.5625 C-77.65656528 263.94303649 -81.83269467 262.16573595 -86 260 C-86 259.34 -86 258.68 -86 258 C-86.86109375 257.90332031 -87.7221875 257.80664062 -88.609375 257.70703125 C-92.35693549 256.9255699 -94.93873998 255.5918823 -98.25 253.6875 C-101.97728987 251.55033504 -105.57183678 249.73057168 -109.58203125 248.1875 C-116.07940924 245.65665163 -122.22920186 242.47442511 -128.4375 239.3125 C-130.74780405 238.14016389 -133.05896146 236.96950749 -135.37109375 235.80078125 C-136.38099365 235.28684814 -137.39089355 234.77291504 -138.43139648 234.2434082 C-141.0231721 232.92076399 -141.0231721 232.92076399 -144 232 C-144 231.34 -144 230.68 -144 230 C-144.87672363 229.885354 -145.75344727 229.77070801 -146.65673828 229.65258789 C-149.97654261 229.00457876 -152.46373927 228.03811856 -155.4921875 226.55859375 C-156.51916748 226.06125732 -157.54614746 225.5639209 -158.60424805 225.05151367 C-159.68359619 224.51888916 -160.76294434 223.98626465 -161.875 223.4375 C-163.54912964 222.62212769 -163.54912964 222.62212769 -165.25708008 221.7902832 C-168.50937443 220.20278389 -171.75589328 218.60415448 -175 217 C-175.82580566 216.59201172 -176.65161133 216.18402344 -177.50244141 215.76367188 C-183.26328494 212.91068269 -189.00379839 210.01857221 -194.73046875 207.09765625 C-200.62890523 204.1014884 -206.50450894 201.32804922 -212.6875 198.96875 C-215.91069541 197.61849246 -218.88679156 195.92035169 -221.89453125 194.1484375 C-224.20801119 192.88653935 -226.54728655 191.9648282 -229 191 C-231.52964779 189.86996358 -234.04878381 188.72666945 -236.5625 187.5625 C-237.22185547 187.26279297 -237.88121094 186.96308594 -238.56054688 186.65429688 C-241.99766214 185.06182438 -245.08237342 183.42764349 -248 181 C-240.27580569 181.7915841 -232.61491133 182.90741898 -224.9375 184.0625 C-223.69033203 184.24876953 -222.44316406 184.43503906 -221.15820312 184.62695312 C-218.10524207 185.08314271 -215.05251876 185.54086187 -212 186 C-212 186.66 -212 187.32 -212 188 C-211.21496094 188.04898438 -210.42992187 188.09796875 -209.62109375 188.1484375 C-208.57050781 188.22320312 -207.51992187 188.29796875 -206.4375 188.375 C-205.40496094 188.44460937 -204.37242187 188.51421875 -203.30859375 188.5859375 C-200.40508527 188.94930456 -197.87822656 189.64088802 -195.09204102 190.48730469 C-190.40355822 191.63630852 -185.54241802 191.94085469 -180.75 192.4375 C-165.74933882 194.0831333 -150.94498273 196.22925909 -136.19921875 199.44921875 C-133.06252529 199.98923557 -130.17542414 200.10088337 -127 200 C-127.88042969 199.13117188 -128.76085937 198.26234375 -129.66796875 197.3671875 C-130.84128125 196.2032615 -132.01445073 195.0391913 -133.1875 193.875 C-133.76564453 193.30523437 -134.34378906 192.73546875 -134.93945312 192.1484375 C-137.65895621 189.44429883 -140.27965909 186.73315708 -142.70703125 183.76171875 C-144.55633417 181.53436413 -146.26589422 179.74480727 -148.5 177.9375 C-152.95091795 174.22203416 -156.85178629 170.16939647 -160.6796875 165.8203125 C-166.76314351 159.05137939 -173.20526303 152.64472517 -179.64892578 146.22070312 C-181.76321837 144.11181542 -183.87205471 141.99757572 -185.98046875 139.8828125 C-187.33561663 138.52832473 -188.69107431 137.17414682 -190.046875 135.8203125 C-190.67092224 135.19424103 -191.29496948 134.56816956 -191.93792725 133.92312622 C-195.15216722 130.72602346 -198.41294696 127.78503182 -202 125 C-203.05544917 123.86455346 -204.07783637 122.69735097 -205.0625 121.5 C-208.81573604 117.07952199 -212.9124719 113.05404641 -217.08813477 109.03710938 C-218.42830111 107.72746442 -219.71883474 106.36741776 -221 105 C-221 104.34 -221 103.68 -221 103 C-215.81493685 101.09073376 -210.63764783 99.18591019 -205.375 97.5 C-202.42927729 96.53481168 -199.63970858 95.42038571 -196.828125 94.1171875 C-192.09882174 91.99176699 -187.28379894 90.28376899 -182.375 88.625 C-170.9010459 84.67168199 -159.6936897 80.21148895 -148.5625 75.375 C-147.9240918 75.09785156 -147.28568359 74.82070312 -146.62792969 74.53515625 C-138.70369181 71.04997815 -131.13223249 67.00283664 -123.5625 62.8125 C-113.88166791 57.48652498 -104.08465941 52.40841306 -94.25 47.375 C-84.99858226 42.63921215 -75.79267382 37.87135597 -66.75195312 32.74121094 C-59.23290074 28.50507499 -51.54185614 24.59970107 -43.86630249 20.65753174 C-33.616352 15.39036055 -23.47011032 9.95716522 -13.37890625 4.390625 C-11.91928013 3.59373297 -10.45964571 2.79685615 -9 2 C-7.87464844 1.37609375 -6.74929688 0.7521875 -5.58984375 0.109375 C-3 -1 -3 -1 0 0 Z " fill="#FCFCFC" transform="translate(297,61)"/>
<path d="M0 0 C159.39 0.495 159.39 0.495 322 1 C322 1.66 322 2.32 322 3 C320.68 3.66 319.36 4.32 318 5 C318 4.34 318 3.68 318 3 C213.06 3 108.12 3 0 3 C0 2.01 0 1.02 0 0 Z " fill="#C7C6C8" transform="translate(232,135)"/>
<path d="M0 0 C0 3 0 3 -1.37353516 4.65405273 C-2.00565918 5.24130127 -2.6377832 5.8285498 -3.2890625 6.43359375 C-3.98386719 7.08263672 -4.67867188 7.73167969 -5.39453125 8.40039062 C-6.13058594 9.07263672 -6.86664063 9.74488281 -7.625 10.4375 C-8.33785156 11.10587891 -9.05070312 11.77425781 -9.78515625 12.46289062 C-20.08788095 22 -20.08788095 22 -25 22 C-17.86642478 15.29738799 -10.68609198 8.7713599 -3.046875 2.64453125 C-1.12569477 1.16181243 -1.12569477 1.16181243 0 0 Z " fill="#363639" transform="translate(434,243)"/>
<path d="M0 0 C-2.64 2.97 -5.28 5.94 -8 9 C-9.32 8.01 -10.64 7.02 -12 6 C-12.66 5.67 -13.32 5.34 -14 5 C-12.23628182 3.96692229 -10.46374967 2.94887951 -8.6875 1.9375 C-7.70136719 1.36902344 -6.71523438 0.80054688 -5.69921875 0.21484375 C-3 -1 -3 -1 0 0 Z " fill="#C6C5C6" transform="translate(297,61)"/>
<path d="M0 0 C1 3 1 3 2 6 C0.71186658 6.83878455 -0.58063256 7.67086783 -1.875 8.5 C-2.59429687 8.9640625 -3.31359375 9.428125 -4.0546875 9.90625 C-6 11 -6 11 -8 11 C-6.52670958 5.99081256 -3.72484762 3.48192278 0 0 Z " fill="#CBCCCE" transform="translate(312,574)"/>
<path d="M0 0 C6.44362304 -0.2408831 12.2103966 0.64700392 18.5 2 C19.4178125 2.19078125 20.335625 2.3815625 21.28125 2.578125 C23.52241577 3.04503453 25.76180083 3.51910692 28 4 C28 4.33 28 4.66 28 5 C22.19072164 5.2371134 17.60245062 4.70922222 12 3 C8.0118157 2.25661048 4.0092314 1.61883046 0 1 C0 0.67 0 0.34 0 0 Z " fill="#7B7B7B" transform="translate(85,248)"/>
<path d="M0 0 C1.81612488 0.95144598 3.62781081 1.91136933 5.4375 2.875 C6.44683594 3.40867187 7.45617187 3.94234375 8.49609375 4.4921875 C11 6 11 6 12 8 C6.54520815 7.43179252 2.08940744 6.05362055 -3 4 C-2.01 3.34 -1.02 2.68 0 2 C0 1.34 0 0.68 0 0 Z " fill="#B2B2B5" transform="translate(538,415)"/>
<path d="M0 0 C5.67355671 0.61726196 11.33861055 1.27945952 17 2 C16.360625 2.28875 15.72125 2.5775 15.0625 2.875 C12.84793921 3.82823451 12.84793921 3.82823451 12 6 C7.76570244 4.68938409 3.92592596 3.05643741 0 1 C0 0.67 0 0.34 0 0 Z " fill="#C1C1C1" transform="translate(49,242)"/>
<path d="M0 0 C3.81684226 1.55500981 6.19195732 4.03595495 9 7 C7.35 7.66 5.7 8.32 4 9 C0 2.25 0 2.25 0 0 Z " fill="#191919" transform="translate(246,321)"/>
<path d="M0 0 C0 0.66 0 1.32 0 2 C-2.1875 3.4375 -2.1875 3.4375 -5 5 C-6.2684375 5.86625 -6.2684375 5.86625 -7.5625 6.75 C-10.40266231 8.20649349 -11.07953887 7.91380179 -14 7 C-12.04480616 5.82807953 -10.0857461 4.6626071 -8.125 3.5 C-7.03445313 2.8503125 -5.94390625 2.200625 -4.8203125 1.53125 C-2 0 -2 0 0 0 Z " fill="#434347" transform="translate(414,525)"/>
<path d="M0 0 C4.455 0.99 4.455 0.99 9 2 C7.68 3.32 6.36 4.64 5 6 C3.35 4.02 1.7 2.04 0 0 Z " fill="#464647" transform="translate(437,390)"/>
<path d="M0 0 C-0.33 2.31 -0.66 4.62 -1 7 C-1.66 6.01 -2.32 5.02 -3 4 C-4.32 5.32 -5.64 6.64 -7 8 C-7.66 7.67 -8.32 7.34 -9 7 C-7.88121617 5.82737096 -6.75476949 4.66204862 -5.625 3.5 C-4.68527344 2.52546875 -4.68527344 2.52546875 -3.7265625 1.53125 C-2 0 -2 0 0 0 Z " fill="#A5A4A7" transform="translate(212,346)"/>
<path d="M0 0 C0 3 0 3 -1.75 4.82421875 C-2.4925 5.43910156 -3.235 6.05398437 -4 6.6875 C-4.7425 7.31011719 -5.485 7.93273437 -6.25 8.57421875 C-6.8275 9.04472656 -7.405 9.51523438 -8 10 C-8.66 9.67 -9.32 9.34 -10 9 C-6.7 6.03 -3.4 3.06 0 0 Z " fill="#2E2D31" transform="translate(505,180)"/>
<path d="M0 0 C2.5654594 2.5654594 2.54046087 4.47686668 3 8 C-1.875 6.25 -1.875 6.25 -3 4 C-2.34 3.67 -1.68 3.34 -1 3 C-0.67 2.01 -0.34 1.02 0 0 Z " fill="#4C4C4F" transform="translate(384,333)"/>
<path d="M0 0 C0 3 0 3 -1.53125 4.60546875 C-2.1809375 5.12753906 -2.830625 5.64960938 -3.5 6.1875 C-4.1496875 6.71730469 -4.799375 7.24710938 -5.46875 7.79296875 C-5.9740625 8.19128906 -6.479375 8.58960938 -7 9 C-7.66 8.67 -8.32 8.34 -9 8 C-6.03 5.36 -3.06 2.72 0 0 Z " fill="#2A2A2C" transform="translate(434,243)"/>
<path d="M0 0 C-6.625 3 -6.625 3 -10 3 C-10.33 3.99 -10.66 4.98 -11 6 C-11.66 5.67 -12.32 5.34 -13 5 C-13 4.34 -13 3.68 -13 3 C-11.21189234 2.30329584 -9.41937948 1.61788811 -7.625 0.9375 C-6.62726563 0.55464844 -5.62953125 0.17179688 -4.6015625 -0.22265625 C-2 -1 -2 -1 0 0 Z " fill="#A5A5A5" transform="translate(89,161)"/>
<path d="M0 0 C0.75 1.75 0.75 1.75 1 4 C-0.8125 6.25 -0.8125 6.25 -3 8 C-3.66 8 -4.32 8 -5 8 C-3.62845496 5.04590299 -2.01136276 2.55991624 0 0 Z " fill="#C9CACE" transform="translate(318,566)"/>
<path d="M0 0 C2.97 0.33 5.94 0.66 9 1 C8.67 1.99 8.34 2.98 8 4 C2.25 2.25 2.25 2.25 0 0 Z " fill="#A0A0A0" transform="translate(49,242)"/>
</svg>
